<?xml version="1.0" encoding="UTF-8"?>
<svg id="Layer_2" data-name="Layer 2" xmlns="http://www.w3.org/2000/svg" viewBox="0 0 1557.46 650.16">
  <defs>
    <style>
      .cls-1 {
        stroke: #000;
        stroke-miterlimit: 10;
        stroke-width: 8.5px;
      }
    </style>
  </defs>
  <g id="Layer_1-2" data-name="Layer 1">
    <g>
      <g>
        <path class="cls-1" d="M275.19,369.91c-24.78-27.92-58.9-41.88-102.35-41.88-45.65,0-84.36,15.88-116.12,47.65-31.77,31.76-47.65,70.47-47.65,116.11s15.76,80.16,47.3,110.12c30.9,29.34,68.23,44,112,44,28.7,0,53.17-6.04,73.41-18.11,3.61-2.2,6.43-5.33,8.47-9.42,1.1-2.35,4-10.27,8.71-23.76,4.7-13.49,7.06-20.78,7.06-21.88,0-1.73-1.5-3.61-4.47-5.65-2.99-2.04-5.34-3.06-7.06-3.06-1.89,0-3.61,1.1-5.18,3.29-17.1,22.28-28.94,35.93-35.53,40.95-15.85,11.61-31.45,17.41-46.82,17.41-34.83,0-62.75-15.61-83.77-46.82-18.67-27.3-28-59.22-28-95.77s9.09-68.08,27.29-93.18c20.24-28.08,48.32-42.12,84.24-42.12,26.67,0,48.31,7.85,64.94,23.53,12.24,11.61,18.36,23.69,18.36,36.24,0,1.41-.24,3.57-.71,6.47-.47,2.9-.71,5.14-.71,6.7,0,3.14,3.22,4.71,9.65,4.71,3.77,0,6.67-1.65,8.71-4.94.47-.94,2.31-8.43,5.53-22.47,3.21-14.04,4.82-21.77,4.82-23.18,0-1.72-.71-3.37-2.12-4.94Z"/>
        <path class="cls-1" d="M913.56,611.56c-12.56-5.33-20-9.02-22.36-11.06-7.69-6.43-14.2-19.53-19.53-39.29-6.11-24.32-10.67-42.51-13.64-54.59-5.5-20.71-11.77-43.06-18.83-67.06-8.79-27.92-15.69-49.49-20.71-64.71-4.08-15.06-7.05-26.43-8.94-34.12-3.61-12.23-9.1-18.35-16.47-18.35-6.11,0-12.47,5.73-19.06,17.18-4.7,8.16-11.05,22.98-19.05,44.47-9.89,25.88-21.42,55.37-34.59,88.47l-34.36,84.94c-8.47,21.18-19.29,37.1-32.47,47.77-2.82,2.2-11.69,4.86-26.59,8-10.98,2.2-16.47,7.22-16.47,15.06,0,7.06,5.49,10.59,16.47,10.59h5.65c14.12-2.2,25.65-3.3,34.59-3.3,5.8,0,16.86.71,33.18,2.12,7.05.78,13.25,1.18,18.58,1.18,10.36,0,15.53-4.16,15.53-12.48,0-4.7-6.11-8.82-18.35-12.35-12.23-3.53-18.35-8.35-18.35-14.47,0-6.74,4.08-19.76,12.23-39.06,10.83-26.04,23.3-39.14,37.42-39.29,3.29,0,8.54-.24,15.76-.71,6.74-.31,11.92-.47,15.53-.47s8.51.2,15.18.59c6.66.39,11.64.59,14.94.59,10.19,0,18.43,6.9,24.7,20.7,4.86,10.99,7.3,22.28,7.3,33.89s-2.98,21.41-8.94,28c-2.98,3.29-8.63,6.98-16.94,11.06-6.12,2.98-9.18,6.19-9.18,9.64,0,10.04,5.33,15.06,16,15.06,4.86,0,10.9-.63,18.12-1.88,13.65-2.04,22.59-3.06,26.82-3.06,5.18,0,16.86,1.1,35.06,3.29,7.84,1.1,14.04,1.65,18.59,1.65,4.23,0,6.35-4.39,6.35-13.18,0-5.95-4.39-10.9-13.17-14.82ZM808.38,495.79c-2.51,1.89-8.87,2.83-19.06,2.83h-8.94c-14.59,0-22.12-.08-22.59-.24-8.79-1.41-13.18-5.96-13.18-13.64,0-5.49,3.69-19.14,11.06-40.95,10.98-31.84,19.06-47.76,24.24-47.76,7.21,0,15.06,14.2,23.53,42.59,6.74,22.9,10.11,36.31,10.11,40.23,0,8.94-1.72,14.59-5.17,16.94Z"/>
        <path class="cls-1" d="M1023.09,369.67c4.86-7.37,11.29-11.84,19.29-13.41,7.37-1.56,11.06-5.02,11.06-10.35,0-8.63-3.29-12.94-9.88-12.94-5.02,0-12.47.51-22.36,1.53-9.88,1.02-17.33,1.53-22.35,1.53-2.04,0-9.8-.71-23.29-2.12-4.56-.63-9.18-.94-13.89-.94-10.04,0-15.05,3.45-15.05,10.35,0,3.45,5.41,7.69,16.23,12.71,12.24,5.64,18.35,17.96,18.35,36.94v168.47c0,14.28-.78,24.63-2.35,31.06-2.82,10.67-8.55,18.2-17.18,22.59-11.29,5.81-16.94,10.12-16.94,12.94,0,7.22,3.37,10.83,10.12,10.83,4.55,0,11.37-.67,20.47-2,9.1-1.34,15.92-2,20.47-2s11.14.66,20.24,2c9.09,1.33,15.92,2,20.47,2,8.62,0,12.94-4.24,12.94-12.71,0-5.96-3.45-10.04-10.35-12.24-15.38-5.01-23.06-21.09-23.06-48.23v-173.18c0-8.47,2.35-16.08,7.06-22.83Z"/>
        <path class="cls-1" d="M1312.02,612.97c-6.27,0-13.96-3.76-23.06-11.29-6.58-5.33-12.08-11.06-16.47-17.18-14.11-19.6-21.8-30.27-23.06-32-12.7-18.35-20.55-29.8-23.53-34.35-4.23-5.18-7.37-9.1-9.41-11.77,21.18-8.62,37.89-21.33,50.12-38.12,12.55-17.56,18.82-37.56,18.82-60,0-24-8.94-42.66-26.82-56-16-12.07-36.39-18.11-61.18-18.11-6.43,0-16.19.35-29.29,1.05-13.1.71-22.87,1.06-29.3,1.06-5.17,0-12.86-.9-23.06-2.7-10.19-1.8-17.88-2.71-23.05-2.71-10.04,0-15.06,4.24-15.06,12.71,0,2.04,5.49,6.11,16.47,12.23,10.51,5.81,16,19.45,16.47,40.94.15,6.75.62,22.12,1.41,46.12.63,19.14.94,34.59.94,46.36,0,10.51-.31,26.31-.94,47.41-.63,21.1-.94,36.9-.94,47.41,0,9.57-3.22,17.65-9.65,24.24-2.82,2.82-8.86,7.06-18.12,12.7-6.43,3.93-9.64,7.53-9.64,10.83,0,5.33,3.6,8,10.82,8,5.49,0,13.84-.67,25.06-2,11.21-1.33,19.72-2,25.53-2,5.49,0,13.65.74,24.47,2.23,10.82,1.49,18.98,2.24,24.47,2.24,7.22,0,10.82-2.67,10.82-8,0-5.02-3.92-9.49-11.76-13.41-12.86-6.43-20-10.28-21.41-11.53-7.85-5.96-11.77-13.89-11.77-23.77,0-6.9-.23-17.18-.7-30.82-.47-13.65-.71-23.92-.71-30.83,0-53.65.55-92.55,1.65-116.71.62-13.8.94-26.43.94-37.88,0-9.25,8.71-13.88,26.12-13.88s33.88,6.04,47.53,18.12c14.12,12.7,21.17,27.92,21.17,45.64,0,34.83-13.17,58.75-39.53,71.77-5.8,2.04-11.61,4-17.41,5.88-8.78,3.14-13.17,5.89-13.17,8.24,0,.47,3.6,5.73,10.82,15.76l71.77,100.24c8.94,12.39,18.19,18.59,27.76,18.59,2.67,0,6.16-.12,10.47-.35,4.31-.24,7.1-.36,8.35-.36,2.2,0,5.85.16,10.95.47,5.09.32,8.11.47,9.05.47,9.73,0,14.59-3.6,14.59-10.82,0-9.41-9.17-14.12-27.53-14.12Z"/>
        <path class="cls-1" d="M1509.67,494.85c-27.14-12.54-54.2-25.02-81.17-37.41-29.03-15.06-43.53-33.49-43.53-55.29,0-15.38,7.68-28.08,23.05-38.12,13.49-8.79,28.39-13.18,44.71-13.18,26.04,0,45.1,7.38,57.18,22.12,3.13,3.92,5.25,7.76,6.35,11.53.63,3.76,1.45,7.49,2.47,11.18,1.02,3.68,3.96,5.52,8.83,5.52,6.74,0,10.11-3.84,10.11-11.52v-27.77c0-8.94-12.15-16.63-36.47-23.06-19.29-5.18-35.45-7.76-48.47-7.76-27.92,0-51.69,7.14-71.29,21.41-21.97,15.84-32.95,37.18-32.95,64s14.51,48.63,43.53,66.35c26.98,12.87,53.89,25.73,80.71,38.59,29.02,14.91,43.53,32.32,43.53,52.24,0,16.63-8.47,29.49-25.41,38.59-13.81,7.37-29.81,11.06-48,11.06-15.38,0-29.49-2.67-42.36-8-16-6.59-25.72-16.16-29.17-28.71-.63-3.76-1.34-7.53-2.12-11.3-1.26-3.6-4.32-5.41-9.18-5.41-6.74,0-10.11,3.85-10.11,11.53v22.83c0,8.78,8.07,16.94,24.23,24.47,10.98,4.86,22.9,8.62,35.77,11.29,11.76,2.36,22.74,3.53,32.94,3.53,29.33,0,54.12-6.35,74.35-19.06,24-15.06,36-36.39,36-64s-14.51-48.55-43.53-65.65Z"/>
        <path class="cls-1" d="M594.96,627.09c0,7.06-5.48,10.59-16.43,10.59-3.05,0-7.97-.31-14.73-.94-11.92-1.1-19.49-1.65-22.72-1.65-2.25,0-10.7.71-25.36,2.12-4.83.47-9.91.71-15.22.71-8.05,0-12.08-3.61-12.08-10.83,0-6.12,4.11-9.88,12.32-11.29,17.24-2.83,25.85-12.32,25.85-28.48l-.48-26.35c-.49-15.21-.73-28.62-.73-40.23,0-13.97-4.99-20.94-14.97-20.94-7.57,0-19.01-.39-34.31-1.19-15.3-.78-26.82-1.17-34.55-1.17-.81,0-24.88.55-72.23,1.65-10.3.32-15.46,6.98-15.46,20,0,7.84-.28,19.52-.85,35.06-.56,15.53-.85,27.14-.85,34.82,0,9.1,2.9,15.85,8.71,20.24,2.73,2.2,8.12,4.55,16.18,7.06,5.8,1.88,8.7,4.15,8.7,6.82,0,9.88-4.02,14.83-12.08,14.83-3.87,0-9.26-.32-16.19-.95-11.76-1.09-19.81-1.65-24.16-1.65s-9.34.4-15.46,1.19c-11.11,1.56-18.68,2.35-22.7,2.35-11.44,0-17.16-4.79-17.16-14.36,0-3.29,3.3-6.03,9.9-8.23,9.67-2.98,15.8-5.25,18.36-6.83,6.44-4.38,9.67-10.97,9.67-19.76,0-11.45,2.65-28.75,1.57-51.88-1-21.09,1.66-30.89,4.32-35.45.11-.17.21-.34.29-.49,1.75-3.3-3.63-3.3-3.63-3.3l-6.13.12c-5.31.2-8.64-3.07-8.54-8.26.06-2.66.11-4.83.11-4.84,0-5.9,4.87-10.7,10.93-10.7h95.13c12.97.45,23.01.68,30.12.68,7.9,0,19.69-.31,35.39-.95,15.71-.62,27.51-.94,35.4-.94,8.37,0,12.48-9.87,12.32-29.64,0-4.35-.16-11.09-.48-20.24l.7-45.92c.19-15.43,3.58-26.73,10.17-33.88,2.16-2.27,5.1-4.36,8.81-6.25,3.46-1.77,7.24-2.78,11.1-3.19,1.17-.12,2.38-.26,3.63-.4,9.74-1.1,17.03-1.65,21.87-1.65,9.5,0,14.25,3.61,14.25,10.82,0,3.14-2.9,5.89-8.7,8.24-8.05,3.14-13.61,6.35-16.67,9.65-5.95,6.27-8.94,15.92-8.94,28.94l-.24,91.76c0,12.7.88,30.75,2.66,54.12,1.93,24.16,2.9,42.28,2.9,54.35,0,9.26,2.66,16.32,7.97,21.19,2.41,2.19,7.33,4.78,14.73,7.75,5.33,2.2,7.98,4.8,7.98,7.77Z"/>
      </g>
      <g>
        <rect x="167.88" y="3.74" width="90.17" height="69.22"/>
        <polygon points="258.05 113.26 258.05 284.51 188.83 284.51 188.83 168.45 123.04 168.45 123.04 284.51 53.81 284.51 53.81 58.93 0 58.93 0 3.74 123.04 3.74 123.04 113.26 258.05 113.26"/>
        <path d="M599.78,3.74v184.42c0,10.19,2.23,18.24,6.7,24.17,4.47,5.92,11.69,8.89,21.67,8.89s17.35-2.96,22.14-8.89c4.78-5.92,7.17-13.98,7.17-24.17V3.74h68.91v184.42c0,21-4.37,38.93-13.1,53.79-8.73,14.87-20.69,26.04-35.86,33.52-15.18,7.48-32.12,11.23-50.83,11.23s-35.29-3.74-49.73-11.23c-14.45-7.48-25.72-18.6-33.83-33.36-8.11-14.76-12.16-32.74-12.16-53.94V3.74h68.91Z"/>
        <path d="M481,44.59c-8.11-14.77-19.39-25.88-33.84-33.37-14.44-7.48-31.02-11.22-49.73-11.22s-35.65,3.74-50.83,11.22c-15.17,7.49-27.12,18.66-35.85,33.52-8.73,14.86-13.1,32.79-13.1,53.79v245.26c0,21.2,4.05,39.18,12.16,53.94,8.11,14.76,19.38,25.88,33.83,33.36,14.45,7.49,31.03,11.23,49.74,11.23s35.64-3.74,50.82-11.23c15.17-7.48,27.13-18.65,35.86-33.52,8.73-14.86,13.1-32.79,13.1-53.78V98.53c0-21.2-4.06-39.19-12.16-53.94ZM424.25,343.79c0,10.18-2.4,18.24-7.18,24.16-4.78,5.93-12.16,8.89-22.14,8.89s-17.2-2.96-21.67-8.89c-4.47-5.92-6.7-13.98-6.7-24.16V98.53c0-10.19,2.39-18.24,7.17-24.17,4.79-5.92,12.16-8.88,22.14-8.88s17.2,2.96,21.67,8.88c4.47,5.93,6.71,13.98,6.71,24.17v245.26Z"/>
        <path d="M1043.22,58.93v57.13h68.6v52.07h-68.6v61.18h77.95v55.19h-147.17V3.74h147.17v55.19h-77.95Z"/>
      </g>
      <g>
        <path d="M1313.42,200.13c0,19.17-6.41,37.95-19.22,56.34-14.08,20.15-30.27,30.22-48.56,30.22-11.84,0-20.88-4.11-27.14-12.32-5.67-7.43-8.51-17.21-8.51-29.34,0-20.15,6.11-38.83,18.34-56.04,13.5-19.07,29.93-28.61,49.3-28.61,23.86,0,35.8,13.25,35.8,39.76ZM1293.32,199.83c0-14.47-5.77-21.71-17.31-21.71s-23.18,8.75-33.45,26.26c-9.2,15.75-13.79,30.13-13.79,43.13s6.31,19.07,18.93,19.07,24.16-8.12,33.45-24.36c8.12-14.18,12.18-28.32,12.18-42.4Z"/>
        <path d="M1471.21,41.82c0,2.15-.88,4.84-2.64,8.07-2.05,3.52-4.06,5.28-6.02,5.28s-4.57-.27-8.14-.81c-3.57-.54-6.29-.81-8.14-.81-8.8,0-15.65,3.96-20.54,11.88-1.66,2.64-5.62,14.92-11.88,36.83-6.26,21.91-9.39,34.38-9.39,37.41,0,1.17,1.03,2.27,3.08,3.3,2.05,1.03,3.72,1.54,4.99,1.54,1.17,0,2.91-.39,5.21-1.17,2.3-.78,4.04-1.17,5.21-1.17,4.3,0,6.46,2.69,6.46,8.07,0,7.63-2.49,12.13-7.48,13.5-5.38.78-10.76,1.52-16.14,2.2-6.85,2.15-11.79,7.83-14.82,17.02-.2.59-1.52,6.21-3.96,16.87-1.17,5.09-7.24,27.24-18.19,66.46l-18.49,66.17c-1.47,5.38-4.4,10.61-8.8,15.7-4.99,5.87-9.93,8.8-14.82,8.8-6.85,0-13.2-1.52-19.07-4.55-7.04-3.72-10.56-8.71-10.56-14.96s3.42-9.54,10.27-9.54c1.17,0,2.93.24,5.28.73,2.35.49,4.11.73,5.28.73,4.99,0,8.9-2.1,11.74-6.31,2.25-3.33,9.73-27.14,22.45-71.45,12.71-44.31,19.07-68.71,19.07-73.21,0-3.23-1.42-4.84-4.25-4.84-1.57,0-3.81.27-6.75.81-2.93.54-5.19.81-6.75.81-4.79,0-7.19-2.1-7.19-6.31,0-6.46,5.13-11.39,15.41-14.82,11.44-3.91,17.9-7.53,19.37-10.86.29-.59,1.56-5.48,3.81-14.67l7.78-31.25c5.77-23.18,11.49-38.78,17.17-46.8,9.19-12.91,23.77-19.37,43.72-19.37,3.52,0,7.19.93,11,2.79,4.5,2.15,6.75,4.79,6.75,7.92Z"/>
      </g>
      <path d="M853.32,283.85c-29.01,0-53.23-7.68-71.98-22.83-17.99-14.53-28.16-35.97-30.27-63.77h77.49c2.28,19.8,12.89,24.06,21.59,24.06,4.84,0,9.03-1.32,12.46-3.93,3.66-2.79,5.52-7.06,5.52-12.7,0-7.56-3.64-13.74-10.81-18.36-6.46-4.15-16.58-8.95-30.07-14.25-15.78-6.24-28.98-12.41-39.23-18.35-10.01-5.79-18.75-14.38-25.98-25.51-7.17-11.03-10.69-25.49-10.46-42.98,0-17.53,4.05-32.6,12.04-44.82,7.99-12.23,19.08-21.63,32.95-27.96,14-6.37,30.02-9.6,47.59-9.6,29.66,0,53.49,7.72,70.83,22.96,16.65,14.62,25.81,35.36,27.25,61.68h-78.5c-.57-7.26-2.52-12.54-5.92-16.08-3.84-3.98-8.55-6-14.02-6-4.14,0-7.59,1.6-10.26,4.75-2.55,3.02-3.84,7.15-3.84,12.28,0,7.3,3.57,13.34,10.61,17.95,6.33,4.15,16.49,9.21,30.2,15.03,15.55,6.5,28.53,12.81,38.57,18.76,9.81,5.81,18.45,14.03,25.7,24.42,7.14,10.25,10.76,23.37,10.76,39,0,16.52-3.67,31.51-10.91,44.56-7.21,12.99-17.84,23.29-31.6,30.62-13.83,7.37-30.56,11.1-49.72,11.1Z"/>
    </g>
  </g>
</svg>